<?xml version="1.0" encoding="UTF-8"?>
<svg xmlns="http://www.w3.org/2000/svg" xmlns:xlink="http://www.w3.org/1999/xlink" viewBox="0 0 50 50" width="50px" height="50px">
<g id="surface56961256">
<path style=" stroke:none;fill-rule:nonzero;fill:rgb(83.137256%,66.666669%,0%);fill-opacity:1;" d="M 8.773438 14.582031 L 8.824219 14.582031 C 11.730469 14.582031 13.542969 12.5 13.542969 9.894531 C 13.488281 7.234375 11.730469 5.207031 8.882812 5.207031 C 6.03125 5.207031 4.167969 7.234375 4.167969 9.894531 C 4.167969 12.5 5.976562 14.582031 8.773438 14.582031 Z M 4.167969 17.707031 L 13.542969 17.707031 L 13.542969 44.792969 L 4.167969 44.792969 Z M 45.832031 27.605469 C 45.832031 22.136719 41.402344 17.707031 35.9375 17.707031 C 32.757812 17.707031 29.933594 19.214844 28.125 21.546875 L 28.125 17.707031 L 18.75 17.707031 L 18.75 44.792969 L 28.125 44.792969 L 28.125 29.167969 C 28.125 26.867188 29.992188 25 32.292969 25 C 34.59375 25 36.457031 26.867188 36.457031 29.167969 L 36.457031 44.792969 L 45.832031 44.792969 C 45.832031 44.792969 45.832031 29.121094 45.832031 27.605469 Z M 45.832031 27.605469 "/>
</g>
</svg>
